<svg width="20" height="20" viewBox="0 0 20 20" fill="none" xmlns="http://www.w3.org/2000/svg">
<g clip-path="url(#clip0_2_224)">
<path d="M19.8854 3.68652C19.7836 3.58469 19.6139 3.55074 19.4781 3.58469L18.7991 3.82234C19.2065 3.34709 19.4781 2.83789 19.6478 2.36264C19.7157 2.19291 19.6817 2.05713 19.5799 1.95526C19.4781 1.85344 19.3083 1.81948 19.1725 1.88735C18.222 2.29473 17.4073 2.6342 16.7284 2.83785C16.7284 2.8718 16.6944 2.83785 16.6604 2.83785C16.1173 2.53234 14.7934 1.8534 13.8429 1.8534C11.4327 1.88735 9.49771 3.92416 9.49771 6.40226V6.53804C5.96726 5.8591 4.03231 4.8407 1.9276 2.63416L1.58821 2.29469L1.38452 2.70207C0.230337 4.90861 1.04505 6.91146 2.36897 8.26933C1.75794 8.16751 1.35056 7.96382 0.977142 7.65831C0.841363 7.55648 0.671629 7.52253 0.501895 7.62435C0.366116 7.69226 0.298207 7.89591 0.332162 8.06564C0.807409 9.66112 1.99555 10.9511 3.28551 11.7319C2.67448 11.7319 2.16528 11.664 1.65608 11.3245C1.5203 11.2566 1.31661 11.2566 1.18083 11.3585C1.04505 11.4603 0.977142 11.63 1.04505 11.7998C1.65608 13.531 2.84421 14.4476 4.74524 14.6852C3.76079 15.2623 2.47083 15.7376 0.46798 15.7715C0.264292 15.7715 0.0945577 15.9073 0.0266876 16.0771C-0.0412216 16.2807 0.0266876 16.4505 0.162467 16.5863C1.38456 17.5707 4.10026 18.1478 7.46098 18.1478C13.4356 18.1478 18.3239 12.8182 18.3239 6.26648V6.16466C19.0708 5.79123 19.6818 5.07834 19.9873 4.09389C20.0212 3.95808 19.9873 3.78834 19.8854 3.68652ZM17.8486 5.62146L17.6449 5.68937V6.26648C17.6449 12.4448 13.0621 17.4689 7.46094 17.4689C4.37178 17.4689 2.30106 16.9597 1.18083 16.4165C3.52315 16.2468 4.88102 15.4999 5.93338 14.6852L6.78205 14.0742H5.76365C3.8287 14.0742 2.64057 13.531 1.96163 12.2411C2.57266 12.4448 3.21764 12.4448 3.93053 12.4108C4.20209 12.3769 4.47368 12.3769 4.74524 12.3769L4.84707 11.6979C3.5571 11.3245 2.0295 10.1703 1.28266 8.6088C1.96159 8.91431 2.7084 8.98222 3.38733 8.98222H4.43969L3.59106 8.37116C2.87817 7.86196 0.773493 6.06279 1.7919 3.48283C3.96448 5.62146 6.03524 6.60591 9.76935 7.28484L10.1767 7.35275V6.40226C10.1767 4.29758 11.8062 2.56629 13.843 2.53234C14.6237 2.49838 15.9137 3.21127 16.2871 3.41496C16.4908 3.51678 16.6945 3.55074 16.8981 3.48287C17.4073 3.31313 18.0184 3.07549 18.6973 2.80393C18.3918 3.31313 17.9844 3.78838 17.4413 4.22971C17.3055 4.33154 17.2716 4.53523 17.3395 4.70496C17.4074 4.87469 17.611 4.9426 17.7808 4.87469L19.1047 4.4334C18.867 4.87466 18.4936 5.38386 17.8486 5.62146Z" fill="white"/>
</g>
<defs>
<clipPath id="clip0_2_224">
<rect width="20" height="20" fill="white"/>
</clipPath>
</defs>
</svg>
