<svg width="18" height="18" viewBox="0 0 18 18" fill="none" xmlns="http://www.w3.org/2000/svg">
<g clip-path="url(#clip0_2_197)">
<path d="M17.9824 5.29205C17.9403 4.33564 17.7856 3.67812 17.564 3.10836C17.3355 2.50359 16.9838 1.96213 16.5232 1.51201C16.073 1.05489 15.528 0.699691 14.9302 0.474702C14.3572 0.253147 13.7031 0.0984842 12.7467 0.0563159C11.7831 0.0105764 11.4772 0 9.03341 0C6.58958 0 6.28368 0.0105764 5.3237 0.0527447C4.36729 0.094913 3.70977 0.249713 3.14016 0.471131C2.53524 0.699691 1.99378 1.05132 1.54367 1.51201C1.08655 1.96213 0.731483 2.50716 0.506356 3.10493C0.284801 3.67812 0.130139 4.33207 0.0879703 5.28848C0.0422308 6.25203 0.0316544 6.55792 0.0316544 9.00176C0.0316544 11.4456 0.0422308 11.7515 0.084399 12.7115C0.126567 13.6679 0.281367 14.3254 0.502922 14.8952C0.731483 15.4999 1.08655 16.0414 1.54367 16.4915C1.99378 16.9486 2.53881 17.3038 3.13658 17.5288C3.70977 17.7504 4.36372 17.905 5.32027 17.9472C6.28011 17.9895 6.58614 17.9999 9.02998 17.9999C11.4738 17.9999 11.7797 17.9895 12.7397 17.9472C13.6961 17.905 14.3536 17.7504 14.9232 17.5288C16.1329 17.0611 17.0893 16.1047 17.557 14.8952C17.7785 14.322 17.9333 13.6679 17.9754 12.7115C18.0176 11.7515 18.0282 11.4456 18.0282 9.00176C18.0282 6.55792 18.0246 6.25203 17.9824 5.29205ZM16.3615 12.6411C16.3228 13.5202 16.1751 13.9949 16.052 14.3114C15.7496 15.0956 15.1272 15.7179 14.343 16.0204C14.0266 16.1434 13.5484 16.2911 12.6728 16.3297C11.7234 16.372 11.4387 16.3824 9.03698 16.3824C6.63531 16.3824 6.347 16.372 5.40103 16.3297C4.52196 16.2911 4.04725 16.1434 3.73079 16.0204C3.34056 15.8761 2.98536 15.6476 2.69705 15.3487C2.39816 15.0568 2.1696 14.7052 2.02538 14.315C1.9023 13.9985 1.75465 13.5202 1.71605 12.6447C1.67374 11.6953 1.66331 11.4104 1.66331 9.00876C1.66331 6.6071 1.67374 6.31879 1.71605 5.37295C1.75465 4.49387 1.9023 4.01917 2.02538 3.7027C2.1696 3.31234 2.39816 2.95727 2.70062 2.66883C2.99236 2.36994 3.34399 2.14138 3.73436 1.99729C4.05083 1.87422 4.5291 1.72656 5.40461 1.68783C6.35401 1.64566 6.63889 1.63509 9.04042 1.63509C11.4457 1.63509 11.7304 1.64566 12.6764 1.68783C13.5554 1.72656 14.0301 1.87422 14.3466 1.99729C14.7368 2.14138 15.092 2.36994 15.3804 2.66883C15.6792 2.96071 15.9078 3.31234 16.052 3.7027C16.1751 4.01917 16.3228 4.49731 16.3615 5.37295C16.4037 6.32236 16.4142 6.6071 16.4142 9.00876C16.4142 11.4104 16.4037 11.6917 16.3615 12.6411Z" fill="white"/>
<path d="M9.03338 4.37769C6.48062 4.37769 4.40943 6.44874 4.40943 9.00164C4.40943 11.5545 6.48062 13.6256 9.03338 13.6256C11.5863 13.6256 13.6573 11.5545 13.6573 9.00164C13.6573 6.44874 11.5863 4.37769 9.03338 4.37769ZM9.03338 12.0011C7.37728 12.0011 6.03394 10.6579 6.03394 9.00164C6.03394 7.3454 7.37728 6.00219 9.03338 6.00219C10.6896 6.00219 12.0328 7.3454 12.0328 9.00164C12.0328 10.6579 10.6896 12.0011 9.03338 12.0011Z" fill="white"/>
<path d="M14.9198 4.19496C14.9198 4.79108 14.4364 5.27444 13.8402 5.27444C13.244 5.27444 12.7607 4.79108 12.7607 4.19496C12.7607 3.5987 13.244 3.11548 13.8402 3.11548C14.4364 3.11548 14.9198 3.5987 14.9198 4.19496Z" fill="white"/>
</g>
<defs>
<clipPath id="clip0_2_197">
<rect width="18" height="18" fill="white"/>
</clipPath>
</defs>
</svg>
