<svg width="162" height="53" viewBox="0 0 162 53" fill="none" xmlns="http://www.w3.org/2000/svg">
<path d="M4.944 49L2.124 41.488H2.076C2.1 41.736 2.12 42.072 2.136 42.496C2.152 42.912 2.16 43.348 2.16 43.804V49H1.164V40.432H2.76L5.4 47.452H5.448L8.136 40.432H9.72V49H8.652V43.732C8.652 43.316 8.66 42.904 8.676 42.496C8.7 42.088 8.72 41.756 8.736 41.5H8.688L5.832 49H4.944ZM14.3907 42.448C14.9427 42.448 15.4147 42.568 15.8067 42.808C16.2067 43.048 16.5107 43.388 16.7187 43.828C16.9347 44.26 17.0427 44.768 17.0427 45.352V45.988H12.6387C12.6547 46.716 12.8387 47.272 13.1907 47.656C13.5507 48.032 14.0507 48.22 14.6907 48.22C15.0987 48.22 15.4587 48.184 15.7707 48.112C16.0907 48.032 16.4187 47.92 16.7547 47.776V48.7C16.4267 48.844 16.1027 48.948 15.7827 49.012C15.4627 49.084 15.0827 49.12 14.6427 49.12C14.0347 49.12 13.4947 48.996 13.0227 48.748C12.5587 48.5 12.1947 48.132 11.9307 47.644C11.6747 47.148 11.5467 46.544 11.5467 45.832C11.5467 45.128 11.6627 44.524 11.8947 44.02C12.1347 43.516 12.4667 43.128 12.8907 42.856C13.3227 42.584 13.8227 42.448 14.3907 42.448ZM14.3787 43.312C13.8747 43.312 13.4747 43.476 13.1787 43.804C12.8907 44.124 12.7187 44.572 12.6627 45.148H15.9387C15.9307 44.604 15.8027 44.164 15.5547 43.828C15.3067 43.484 14.9147 43.312 14.3787 43.312ZM18.3442 45.136C18.3442 43.728 18.5562 42.632 18.9802 41.848C19.4042 41.056 20.0882 40.56 21.0322 40.36C21.5522 40.248 22.0602 40.148 22.5562 40.06C23.0522 39.972 23.5162 39.892 23.9482 39.82L24.1282 40.744C23.8482 40.784 23.5322 40.836 23.1802 40.9C22.8282 40.956 22.4802 41.016 22.1362 41.08C21.7922 41.136 21.4962 41.192 21.2482 41.248C20.7282 41.36 20.3162 41.632 20.0122 42.064C19.7082 42.488 19.5362 43.152 19.4962 44.056H19.5682C19.6802 43.904 19.8322 43.748 20.0242 43.588C20.2242 43.428 20.4602 43.292 20.7322 43.18C21.0122 43.068 21.3282 43.012 21.6802 43.012C22.5122 43.012 23.1402 43.28 23.5642 43.816C23.9882 44.352 24.2002 45.048 24.2002 45.904C24.2002 46.616 24.0762 47.212 23.8282 47.692C23.5802 48.172 23.2362 48.532 22.7962 48.772C22.3562 49.004 21.8442 49.12 21.2602 49.12C20.3722 49.12 19.6642 48.78 19.1362 48.1C18.6082 47.42 18.3442 46.432 18.3442 45.136ZM21.3442 48.244C21.8642 48.244 22.2842 48.076 22.6042 47.74C22.9242 47.404 23.0842 46.828 23.0842 46.012C23.0842 45.356 22.9602 44.84 22.7122 44.464C22.4722 44.08 22.0722 43.888 21.5122 43.888C21.1602 43.888 20.8402 43.968 20.5522 44.128C20.2642 44.28 20.0242 44.456 19.8322 44.656C19.6402 44.856 19.5042 45.024 19.4242 45.16C19.4242 45.552 19.4522 45.932 19.5082 46.3C19.5642 46.668 19.6602 47 19.7962 47.296C19.9402 47.584 20.1362 47.816 20.3842 47.992C20.6402 48.16 20.9602 48.244 21.3442 48.244ZM28.3478 42.448C28.8998 42.448 29.3718 42.568 29.7638 42.808C30.1638 43.048 30.4678 43.388 30.6758 43.828C30.8918 44.26 30.9998 44.768 30.9998 45.352V45.988H26.5958C26.6118 46.716 26.7958 47.272 27.1478 47.656C27.5078 48.032 28.0078 48.22 28.6478 48.22C29.0558 48.22 29.4158 48.184 29.7278 48.112C30.0478 48.032 30.3758 47.92 30.7118 47.776V48.7C30.3838 48.844 30.0598 48.948 29.7398 49.012C29.4198 49.084 29.0398 49.12 28.5998 49.12C27.9918 49.12 27.4518 48.996 26.9798 48.748C26.5158 48.5 26.1518 48.132 25.8878 47.644C25.6318 47.148 25.5038 46.544 25.5038 45.832C25.5038 45.128 25.6198 44.524 25.8518 44.02C26.0918 43.516 26.4238 43.128 26.8478 42.856C27.2798 42.584 27.7798 42.448 28.3478 42.448ZM28.3358 43.312C27.8318 43.312 27.4318 43.476 27.1358 43.804C26.8478 44.124 26.6758 44.572 26.6198 45.148H29.8958C29.8878 44.604 29.7598 44.164 29.5118 43.828C29.2638 43.484 28.8718 43.312 28.3358 43.312ZM37.5332 49H36.4652V43.444H34.5692C34.4652 44.796 34.3212 45.888 34.1372 46.72C33.9532 47.544 33.7092 48.144 33.4052 48.52C33.1012 48.896 32.7172 49.084 32.2532 49.084C32.1492 49.084 32.0452 49.076 31.9412 49.06C31.8452 49.052 31.7652 49.032 31.7012 49V48.208C31.7492 48.224 31.8012 48.236 31.8572 48.244C31.9132 48.252 31.9692 48.256 32.0252 48.256C32.4572 48.256 32.8012 47.796 33.0572 46.876C33.3212 45.956 33.5212 44.52 33.6572 42.568H37.5332V49ZM42.5387 45.208C44.2107 45.208 45.0467 45.816 45.0467 47.032C45.0467 47.632 44.8427 48.112 44.4347 48.472C44.0267 48.824 43.3787 49 42.4907 49H39.5747V42.568H40.6307V45.208H42.5387ZM43.9907 47.092C43.9907 46.7 43.8507 46.436 43.5707 46.3C43.2987 46.156 42.9147 46.084 42.4187 46.084H40.6307V48.148H42.4427C42.8907 48.148 43.2587 48.068 43.5467 47.908C43.8427 47.748 43.9907 47.476 43.9907 47.092ZM47.7557 42.568V45.244H51.2477V42.568H52.3037V49H51.2477V46.132H47.7557V49H46.6997V42.568H47.7557ZM56.7763 42.46C57.5603 42.46 58.1403 42.632 58.5163 42.976C58.8923 43.32 59.0803 43.868 59.0803 44.62V49H58.3123L58.1083 48.088H58.0603C57.7803 48.44 57.4843 48.7 57.1723 48.868C56.8683 49.036 56.4443 49.12 55.9003 49.12C55.3163 49.12 54.8323 48.968 54.4483 48.664C54.0643 48.352 53.8723 47.868 53.8723 47.212C53.8723 46.572 54.1243 46.08 54.6283 45.736C55.1323 45.384 55.9083 45.192 56.9563 45.16L58.0483 45.124V44.74C58.0483 44.204 57.9323 43.832 57.7003 43.624C57.4683 43.416 57.1403 43.312 56.7163 43.312C56.3803 43.312 56.0603 43.364 55.7563 43.468C55.4523 43.564 55.1683 43.676 54.9043 43.804L54.5803 43.012C54.8603 42.86 55.1923 42.732 55.5763 42.628C55.9603 42.516 56.3603 42.46 56.7763 42.46ZM57.0883 45.892C56.2883 45.924 55.7323 46.052 55.4203 46.276C55.1163 46.5 54.9643 46.816 54.9643 47.224C54.9643 47.584 55.0723 47.848 55.2883 48.016C55.5123 48.184 55.7963 48.268 56.1403 48.268C56.6843 48.268 57.1363 48.12 57.4963 47.824C57.8563 47.52 58.0363 47.056 58.0363 46.432V45.856L57.0883 45.892ZM61.4629 49H60.2389L62.0749 46.3C61.8269 46.236 61.5869 46.136 61.3549 46C61.1229 45.856 60.9349 45.66 60.7909 45.412C60.6469 45.156 60.5749 44.84 60.5749 44.464C60.5749 43.848 60.7829 43.38 61.1989 43.06C61.6149 42.732 62.1669 42.568 62.8549 42.568H65.7349V49H64.6789V46.444H63.1189L61.4629 49ZM61.5949 44.476C61.5949 44.844 61.7309 45.12 62.0029 45.304C62.2829 45.48 62.6709 45.568 63.1669 45.568H64.6789V43.444H62.9629C62.4749 43.444 62.1229 43.54 61.9069 43.732C61.6989 43.924 61.5949 44.172 61.5949 44.476ZM78.0553 42.472C78.6953 42.528 79.2513 42.696 79.7233 42.976C80.2033 43.256 80.5753 43.632 80.8393 44.104C81.1033 44.576 81.2353 45.136 81.2353 45.784C81.2353 46.752 80.9513 47.524 80.3833 48.1C79.8233 48.676 79.0473 49.008 78.0553 49.096V51.88H77.0233V49.096C76.3913 49.04 75.8353 48.876 75.3553 48.604C74.8753 48.324 74.5033 47.948 74.2393 47.476C73.9753 46.996 73.8433 46.432 73.8433 45.784C73.8433 44.808 74.1233 44.032 74.6833 43.456C75.2513 42.88 76.0433 42.552 77.0593 42.472V39.88H78.0553V42.472ZM77.0593 43.348C76.3233 43.42 75.7873 43.664 75.4513 44.08C75.1153 44.488 74.9473 45.056 74.9473 45.784C74.9473 46.512 75.1153 47.084 75.4513 47.5C75.7953 47.916 76.3313 48.16 77.0593 48.232V43.348ZM78.0553 48.232C78.7753 48.152 79.3033 47.904 79.6393 47.488C79.9753 47.072 80.1433 46.504 80.1433 45.784C80.1433 45.064 79.9713 44.5 79.6273 44.092C79.2913 43.684 78.7673 43.44 78.0553 43.36V48.232ZM85.3466 42.46C86.1306 42.46 86.7106 42.632 87.0866 42.976C87.4626 43.32 87.6506 43.868 87.6506 44.62V49H86.8826L86.6786 48.088H86.6306C86.3506 48.44 86.0546 48.7 85.7426 48.868C85.4386 49.036 85.0146 49.12 84.4706 49.12C83.8866 49.12 83.4026 48.968 83.0186 48.664C82.6346 48.352 82.4426 47.868 82.4426 47.212C82.4426 46.572 82.6946 46.08 83.1986 45.736C83.7026 45.384 84.4786 45.192 85.5266 45.16L86.6186 45.124V44.74C86.6186 44.204 86.5026 43.832 86.2706 43.624C86.0386 43.416 85.7106 43.312 85.2866 43.312C84.9506 43.312 84.6306 43.364 84.3266 43.468C84.0226 43.564 83.7386 43.676 83.4746 43.804L83.1506 43.012C83.4306 42.86 83.7626 42.732 84.1466 42.628C84.5306 42.516 84.9306 42.46 85.3466 42.46ZM85.6586 45.892C84.8586 45.924 84.3026 46.052 83.9906 46.276C83.6866 46.5 83.5346 46.816 83.5346 47.224C83.5346 47.584 83.6426 47.848 83.8586 48.016C84.0826 48.184 84.3666 48.268 84.7106 48.268C85.2546 48.268 85.7066 48.12 86.0666 47.824C86.4266 47.52 86.6066 47.056 86.6066 46.432V45.856L85.6586 45.892ZM89.3012 45.136C89.3012 43.728 89.5132 42.632 89.9372 41.848C90.3612 41.056 91.0452 40.56 91.9892 40.36C92.5092 40.248 93.0172 40.148 93.5132 40.06C94.0092 39.972 94.4732 39.892 94.9052 39.82L95.0852 40.744C94.8052 40.784 94.4892 40.836 94.1372 40.9C93.7852 40.956 93.4372 41.016 93.0932 41.08C92.7492 41.136 92.4532 41.192 92.2052 41.248C91.6852 41.36 91.2732 41.632 90.9692 42.064C90.6652 42.488 90.4932 43.152 90.4532 44.056H90.5252C90.6372 43.904 90.7892 43.748 90.9812 43.588C91.1812 43.428 91.4172 43.292 91.6892 43.18C91.9692 43.068 92.2852 43.012 92.6372 43.012C93.4692 43.012 94.0972 43.28 94.5212 43.816C94.9452 44.352 95.1572 45.048 95.1572 45.904C95.1572 46.616 95.0332 47.212 94.7852 47.692C94.5372 48.172 94.1932 48.532 93.7532 48.772C93.3132 49.004 92.8012 49.12 92.2172 49.12C91.3292 49.12 90.6212 48.78 90.0932 48.1C89.5652 47.42 89.3012 46.432 89.3012 45.136ZM92.3012 48.244C92.8212 48.244 93.2412 48.076 93.5612 47.74C93.8812 47.404 94.0412 46.828 94.0412 46.012C94.0412 45.356 93.9172 44.84 93.6692 44.464C93.4292 44.08 93.0292 43.888 92.4692 43.888C92.1172 43.888 91.7972 43.968 91.5092 44.128C91.2212 44.28 90.9812 44.456 90.7892 44.656C90.5972 44.856 90.4612 45.024 90.3812 45.16C90.3812 45.552 90.4092 45.932 90.4652 46.3C90.5212 46.668 90.6172 47 90.7532 47.296C90.8972 47.584 91.0932 47.816 91.3412 47.992C91.5972 48.16 91.9172 48.244 92.3012 48.244ZM99.8808 42.448C100.673 42.448 101.309 42.724 101.789 43.276C102.277 43.828 102.521 44.66 102.521 45.772C102.521 46.868 102.277 47.7 101.789 48.268C101.309 48.836 100.669 49.12 99.8688 49.12C99.3728 49.12 98.9608 49.028 98.6328 48.844C98.3128 48.652 98.0608 48.432 97.8768 48.184H97.8048C97.8208 48.32 97.8368 48.492 97.8528 48.7C97.8688 48.908 97.8768 49.088 97.8768 49.24V51.88H96.8208V42.568H97.6848L97.8288 43.444H97.8768C98.0688 43.164 98.3208 42.928 98.6328 42.736C98.9448 42.544 99.3608 42.448 99.8808 42.448ZM99.6888 43.336C99.0328 43.336 98.5688 43.52 98.2968 43.888C98.0328 44.256 97.8928 44.816 97.8768 45.568V45.772C97.8768 46.564 98.0048 47.176 98.2608 47.608C98.5248 48.032 99.0088 48.244 99.7128 48.244C100.105 48.244 100.425 48.136 100.673 47.92C100.929 47.704 101.117 47.412 101.237 47.044C101.365 46.668 101.429 46.24 101.429 45.76C101.429 45.024 101.285 44.436 100.997 43.996C100.717 43.556 100.281 43.336 99.6888 43.336ZM105.2 46.492C105.2 46.588 105.196 46.732 105.188 46.924C105.18 47.116 105.168 47.308 105.152 47.5C105.144 47.692 105.136 47.844 105.128 47.956L108.572 42.568H109.868V49H108.884V45.208C108.884 45.08 108.884 44.912 108.884 44.704C108.892 44.496 108.9 44.292 108.908 44.092C108.916 43.884 108.924 43.728 108.932 43.624L105.512 49H104.204V42.568H105.2V46.492ZM115.719 42.568H116.871L114.123 45.664L117.099 49H115.875L112.971 45.736V49H111.915V42.568H112.971V45.688L115.719 42.568ZM120.702 42.46C121.486 42.46 122.066 42.632 122.442 42.976C122.818 43.32 123.006 43.868 123.006 44.62V49H122.238L122.034 48.088H121.986C121.706 48.44 121.41 48.7 121.098 48.868C120.794 49.036 120.37 49.12 119.826 49.12C119.242 49.12 118.758 48.968 118.374 48.664C117.99 48.352 117.798 47.868 117.798 47.212C117.798 46.572 118.05 46.08 118.554 45.736C119.058 45.384 119.834 45.192 120.882 45.16L121.974 45.124V44.74C121.974 44.204 121.858 43.832 121.626 43.624C121.394 43.416 121.066 43.312 120.642 43.312C120.306 43.312 119.986 43.364 119.682 43.468C119.378 43.564 119.094 43.676 118.83 43.804L118.506 43.012C118.786 42.86 119.118 42.732 119.502 42.628C119.886 42.516 120.286 42.46 120.702 42.46ZM121.014 45.892C120.214 45.924 119.658 46.052 119.346 46.276C119.042 46.5 118.89 46.816 118.89 47.224C118.89 47.584 118.998 47.848 119.214 48.016C119.438 48.184 119.722 48.268 120.066 48.268C120.61 48.268 121.062 48.12 121.422 47.824C121.782 47.52 121.962 47.056 121.962 46.432V45.856L121.014 45.892Z" fill="black"/>
<path d="M1.92 29.096C1.728 29.096 1.57867 29.032 1.472 28.904C1.38667 28.7547 1.344 28.584 1.344 28.392C1.36533 28.072 1.42933 27.88 1.536 27.816C1.64267 27.752 1.84533 27.72 2.144 27.72C2.76267 27.72 3.22133 27.6133 3.52 27.4C3.81867 27.1653 4 26.888 4.064 26.568C4.14933 26.2267 4.20267 25.7893 4.224 25.256V12.552C4.20267 12.0187 4.14933 11.592 4.064 11.272C4 10.9307 3.81867 10.6533 3.52 10.44C3.22133 10.2053 2.76267 10.088 2.144 10.088H1.952C1.73867 10.088 1.58933 10.056 1.504 9.992C1.41867 9.90667 1.36533 9.71467 1.344 9.416C1.344 9.224 1.38667 9.064 1.472 8.936C1.57867 8.78667 1.728 8.712 1.92 8.712C3.30667 8.776 4.56533 8.808 5.696 8.808H10.208C11.3813 8.808 12.3307 8.89333 13.056 9.064C13.7813 9.23467 14.432 9.50133 15.008 9.864C15.5627 10.2267 16 10.728 16.32 11.368C16.64 11.9867 16.8 12.6693 16.8 13.416C16.8 14.7387 16.3627 15.7947 15.488 16.584C14.6347 17.352 13.632 17.8747 12.48 18.152V18.248C13.5893 18.248 14.592 18.472 15.488 18.92C16.4053 19.3467 17.1093 19.9333 17.6 20.68C18.112 21.4053 18.368 22.1947 18.368 23.048C18.368 24.4987 17.92 25.672 17.024 26.568C16.1493 27.464 15.04 28.104 13.696 28.488C12.3733 28.8507 10.9973 29.032 9.568 29.032L5.728 29C4.576 29 3.30667 29.032 1.92 29.096ZM8.736 17.608C9.58933 17.608 10.3253 17.544 10.944 17.416C11.584 17.288 12.1493 16.9467 12.64 16.392C13.1307 15.8373 13.376 14.9733 13.376 13.8C13.376 11.2613 12.128 9.992 9.632 9.992H7.392V17.608H8.736ZM9.696 27.752C11.2747 27.7307 12.5333 27.3467 13.472 26.6C14.432 25.832 14.912 24.584 14.912 22.856C14.8053 21.704 14.2613 20.7547 13.28 20.008C12.32 19.2613 10.7947 18.888 8.704 18.888H7.392V25.256C7.392 25.9813 7.456 26.5253 7.584 26.888C7.73333 27.2293 7.95733 27.464 8.256 27.592C8.576 27.6987 9.056 27.752 9.696 27.752ZM25.0948 29.384C23.8148 29.384 22.7801 29.0213 21.9908 28.296C21.2014 27.5707 20.8068 26.664 20.8068 25.576C20.8068 24.232 21.2548 23.2293 22.1508 22.568C23.0468 21.8853 24.1134 21.448 25.3508 21.256C26.5881 21.0427 28.1881 20.8827 30.1508 20.776V18.248C30.1508 17.2027 29.8841 16.4133 29.3508 15.88C28.8388 15.3253 28.0068 15.048 26.8548 15.048C26.1934 15.048 25.6174 15.2507 25.1268 15.656C24.6361 16.0613 24.3908 16.6053 24.3908 17.288C24.3908 17.6293 24.4654 17.9173 24.6148 18.152C24.7854 18.3653 24.9561 18.5467 25.1268 18.696C25.3188 18.8453 25.4148 18.9307 25.4148 18.952C25.4148 19.08 25.2761 19.2507 24.9988 19.464C24.7428 19.656 24.4228 19.752 24.0388 19.752C23.3988 19.752 22.8868 19.5173 22.5028 19.048C22.1401 18.5787 21.9588 18.024 21.9588 17.384C21.9588 16.2747 22.4494 15.4533 23.4308 14.92C24.4334 14.3867 25.6388 14.12 27.0468 14.12C28.7961 14.12 30.2148 14.4507 31.3028 15.112C32.4121 15.7733 32.9668 17 32.9668 18.792V26.248C32.9881 26.696 33.1268 27.1227 33.3828 27.528C33.6388 27.9333 34.0548 28.136 34.6308 28.136C34.8014 28.136 34.9188 28.168 34.9828 28.232C35.0681 28.296 35.1108 28.4347 35.1108 28.648C35.1108 28.904 34.9081 29.0853 34.5028 29.192C34.1188 29.32 33.7348 29.384 33.3508 29.384C32.5401 29.384 31.8254 29.1493 31.2068 28.68C30.5881 28.2107 30.2361 27.5813 30.1508 26.792C29.7028 27.624 29.0094 28.264 28.0708 28.712C27.1534 29.16 26.1614 29.384 25.0948 29.384ZM26.1188 27.656C26.8441 27.656 27.5161 27.4747 28.1348 27.112C28.7534 26.7493 29.2441 26.2587 29.6068 25.64C29.9694 25 30.1508 24.296 30.1508 23.528V21.704C27.9108 21.8747 26.3321 22.2373 25.4148 22.792C24.4974 23.3467 24.0388 24.2427 24.0388 25.48C24.0388 26.9307 24.7321 27.656 26.1188 27.656ZM43.913 29.384C41.737 29.384 40.0303 28.6907 38.793 27.304C37.5557 25.9173 36.937 24.0613 36.937 21.736C36.9797 20.2853 37.3317 18.9947 37.993 17.864C38.6757 16.712 39.5823 15.816 40.713 15.176C41.8437 14.5147 43.0917 14.1627 44.457 14.12C45.8223 14.12 46.9957 14.376 47.977 14.888C48.9797 15.4 49.481 16.2533 49.481 17.448C49.481 18.1093 49.2783 18.696 48.873 19.208C48.489 19.6987 47.9663 19.944 47.305 19.944C46.8997 19.944 46.5477 19.8373 46.249 19.624C45.9717 19.4107 45.833 19.2293 45.833 19.08C45.833 19.0587 45.929 18.9627 46.121 18.792C46.313 18.6213 46.4837 18.4187 46.633 18.184C46.8037 17.928 46.889 17.64 46.889 17.32C46.889 16.6587 46.6437 16.1573 46.153 15.816C45.6837 15.4747 45.1077 15.304 44.425 15.304C42.7823 15.304 41.6623 15.912 41.065 17.128C40.489 18.3227 40.201 19.8267 40.201 21.64C40.201 23.432 40.6063 24.904 41.417 26.056C42.2277 27.208 43.305 27.784 44.649 27.784C45.5663 27.784 46.345 27.592 46.985 27.208C47.6463 26.8027 48.2437 26.1947 48.777 25.384C48.841 25.2773 48.9477 25.224 49.097 25.224C49.2037 25.224 49.321 25.256 49.449 25.32C49.5557 25.3627 49.641 25.4373 49.705 25.544C49.769 25.6507 49.801 25.7573 49.801 25.864C49.801 25.928 49.769 26.0133 49.705 26.12C49.001 27.1227 48.1263 27.9227 47.081 28.52C46.0357 29.096 44.9797 29.384 43.913 29.384ZM52.0605 29.096C51.8898 29.096 51.7618 29.032 51.6765 28.904C51.5912 28.776 51.5485 28.6267 51.5485 28.456C51.5698 28.1787 51.6232 28.0187 51.7085 27.976C51.8152 27.912 52.0072 27.88 52.2845 27.88C52.8392 27.88 53.2338 27.784 53.4685 27.592C53.7032 27.4 53.8418 27.176 53.8845 26.92C53.9272 26.664 53.9485 26.2587 53.9485 25.704V10.12C53.9485 9.56533 53.9272 9.16 53.8845 8.904C53.8632 8.648 53.7352 8.424 53.5005 8.232C53.2658 8.04 52.8712 7.944 52.3165 7.944C52.0605 7.944 51.8685 7.912 51.7405 7.848C51.6125 7.76267 51.5485 7.58133 51.5485 7.304C51.5485 7.176 51.5912 7.05867 51.6765 6.952C51.7618 6.824 51.8898 6.74933 52.0605 6.728C53.4045 6.536 54.5565 6.25867 55.5165 5.896C55.8152 5.78933 56.0605 5.72533 56.2525 5.704H56.3485C56.6898 5.704 56.8605 5.90667 56.8605 6.312V20.936C57.7992 20.744 58.5672 20.3493 59.1645 19.752L61.8525 17C61.8952 16.936 62.0232 16.7973 62.2365 16.584C62.4498 16.3493 62.5565 16.1573 62.5565 16.008C62.5565 15.688 62.0658 15.56 61.0845 15.624C60.8498 15.5813 60.7218 15.3893 60.7005 15.048C60.7005 14.8773 60.7432 14.728 60.8285 14.6C60.9352 14.472 61.0632 14.408 61.2125 14.408C62.1725 14.472 63.3458 14.504 64.7325 14.504C65.0312 14.504 65.5005 14.4827 66.1405 14.44L66.8765 14.408C67.0258 14.408 67.1432 14.472 67.2285 14.6C67.3352 14.728 67.3885 14.8773 67.3885 15.048C67.3672 15.304 67.3138 15.464 67.2285 15.528C67.1432 15.592 67.0152 15.624 66.8445 15.624C66.0552 15.624 65.4045 15.7627 64.8925 16.04C64.3805 16.3173 63.7832 16.808 63.1005 17.512L60.4125 20.264C60.9672 21.0107 62.1405 22.376 63.9325 24.36C64.7432 25.256 65.1592 25.7253 65.1805 25.768C65.9485 26.5787 66.5138 27.1227 66.8765 27.4C67.2605 27.6773 67.7298 27.8373 68.2845 27.88C68.3272 27.88 68.4125 27.8907 68.5405 27.912C68.6898 27.912 68.7965 27.9547 68.8605 28.04C68.9458 28.1253 68.9885 28.264 68.9885 28.456C68.9885 28.8827 68.8178 29.096 68.4765 29.096C68.2845 29.096 67.9645 29.0747 67.5165 29.032C67.0685 29.0107 65.9698 29 64.2205 29C63.5805 28.3387 62.0978 26.6533 59.7725 23.944C59.0472 23.0907 58.7058 22.6853 58.7485 22.728C58.1298 22.0667 57.5005 21.768 56.8605 21.832V25.704C56.8605 26.2587 56.8712 26.664 56.8925 26.92C56.9352 27.176 57.0738 27.4 57.3085 27.592C57.5432 27.784 57.9378 27.88 58.4925 27.88H58.6845C58.8765 27.88 59.0152 27.912 59.1005 27.976C59.1858 28.04 59.2392 28.2 59.2605 28.456C59.2605 28.6267 59.2072 28.776 59.1005 28.904C59.0152 29.032 58.8978 29.096 58.7485 29.096C57.5112 29.032 56.3912 29 55.3885 29C54.4285 29 53.3192 29.032 52.0605 29.096ZM78.0458 29.096C77.8538 29.096 77.7044 29.032 77.5978 28.904C77.5124 28.7547 77.4698 28.584 77.4698 28.392C77.4911 28.072 77.5551 27.88 77.6618 27.816C77.7684 27.752 77.9711 27.72 78.2698 27.72C78.8884 27.72 79.3471 27.6133 79.6458 27.4C79.9444 27.1653 80.1258 26.888 80.1898 26.568C80.2751 26.2267 80.3284 25.7893 80.3498 25.256V12.552C80.3284 12.0187 80.2751 11.592 80.1898 11.272C80.1258 10.9307 79.9444 10.6533 79.6458 10.44C79.3471 10.2053 78.8884 10.088 78.2698 10.088H78.0778C77.8644 10.088 77.7151 10.056 77.6298 9.992C77.5444 9.90667 77.4911 9.71467 77.4698 9.416C77.4698 9.224 77.5124 9.064 77.5978 8.936C77.7044 8.78667 77.8538 8.712 78.0458 8.712C79.4324 8.776 80.6911 8.808 81.8218 8.808C83.1018 8.808 84.4351 8.776 85.8218 8.712C86.0138 8.712 86.1524 8.78667 86.2378 8.936C86.3444 9.064 86.3978 9.224 86.3978 9.416C86.3764 9.736 86.3124 9.928 86.2058 9.992C86.0991 10.056 85.8964 10.088 85.5978 10.088C84.9791 10.088 84.5204 10.2053 84.2218 10.44C83.9231 10.6533 83.7311 10.9307 83.6458 11.272C83.5818 11.592 83.5391 12.0187 83.5178 12.552V18.216H93.5658V12.552C93.5444 12.0187 93.4911 11.592 93.4058 11.272C93.3418 10.9307 93.1604 10.6533 92.8618 10.44C92.5631 10.2053 92.1044 10.088 91.4858 10.088H91.2938C91.0804 10.088 90.9204 10.056 90.8138 9.992C90.7284 9.90667 90.6751 9.71467 90.6538 9.416C90.6538 9.224 90.7071 9.064 90.8138 8.936C90.9204 8.78667 91.0591 8.712 91.2298 8.712C92.6164 8.776 93.9498 8.808 95.2298 8.808C96.4031 8.808 97.6724 8.776 99.0378 8.712C99.2298 8.712 99.3684 8.78667 99.4538 8.936C99.5604 9.064 99.6138 9.224 99.6138 9.416C99.5924 9.736 99.5178 9.928 99.3898 9.992C99.2831 10.056 99.0911 10.088 98.8138 10.088C98.1951 10.088 97.7258 10.2053 97.4058 10.44C97.1071 10.6533 96.9151 10.9307 96.8298 11.272C96.7658 11.592 96.7231 12.0187 96.7018 12.552V25.256C96.7231 25.7893 96.7658 26.2267 96.8298 26.568C96.9151 26.888 97.1071 27.1653 97.4058 27.4C97.7258 27.6133 98.1951 27.72 98.8138 27.72H99.0058C99.1978 27.72 99.3364 27.7627 99.4218 27.848C99.5284 27.912 99.5924 28.0933 99.6138 28.392C99.6138 28.584 99.5604 28.7547 99.4538 28.904C99.3684 29.032 99.2298 29.096 99.0378 29.096C97.6724 29.032 96.3924 29 95.1978 29C93.9391 29 92.6164 29.032 91.2298 29.096C91.0591 29.096 90.9204 29.032 90.8138 28.904C90.7071 28.7547 90.6538 28.584 90.6538 28.392C90.6751 28.072 90.7391 27.88 90.8458 27.816C90.9738 27.752 91.1871 27.72 91.4858 27.72C92.1044 27.72 92.5631 27.6133 92.8618 27.4C93.1604 27.1653 93.3418 26.888 93.4058 26.568C93.4911 26.2267 93.5444 25.7893 93.5658 25.256V19.592H83.5178V25.256C83.5391 25.7893 83.5818 26.2267 83.6458 26.568C83.7311 26.888 83.9231 27.1653 84.2218 27.4C84.5204 27.6133 84.9791 27.72 85.5978 27.72H85.7898C86.0031 27.72 86.1524 27.7627 86.2378 27.848C86.3231 27.912 86.3764 28.0933 86.3978 28.392C86.3978 28.584 86.3444 28.7547 86.2378 28.904C86.1524 29.032 86.0138 29.096 85.8218 29.096C84.4564 29.032 83.1338 29 81.8538 29C80.7018 29 79.4324 29.032 78.0458 29.096ZM107.924 29.384C106.474 29.384 105.183 29.0427 104.052 28.36C102.922 27.656 102.036 26.7387 101.396 25.608C100.778 24.456 100.468 23.24 100.468 21.96C100.468 20.36 100.842 18.9733 101.588 17.8C102.335 16.6053 103.284 15.6987 104.436 15.08C105.588 14.44 106.751 14.12 107.924 14.12C109.375 14.12 110.666 14.472 111.796 15.176C112.927 15.8587 113.802 16.776 114.42 17.928C115.06 19.0587 115.38 20.264 115.38 21.544C115.38 23.144 114.996 24.5413 114.228 25.736C113.482 26.9093 112.532 27.816 111.38 28.456C110.228 29.0747 109.076 29.384 107.924 29.384ZM107.924 28.2C109.375 28.2 110.431 27.5813 111.092 26.344C111.775 25.1067 112.116 23.5067 112.116 21.544C112.116 19.7093 111.764 18.216 111.06 17.064C110.378 15.8907 109.332 15.304 107.924 15.304C106.452 15.304 105.386 15.912 104.724 17.128C104.063 18.344 103.732 19.9333 103.732 21.896C103.732 23.7307 104.074 25.2453 104.756 26.44C105.439 27.6133 106.495 28.2 107.924 28.2ZM118.1 29.096C117.951 29.096 117.823 29.032 117.716 28.904C117.631 28.776 117.588 28.6267 117.588 28.456C117.609 28.1787 117.663 28.0187 117.748 27.976C117.855 27.912 118.047 27.88 118.324 27.88C118.879 27.88 119.273 27.784 119.508 27.592C119.743 27.4 119.881 27.176 119.924 26.92C119.967 26.664 119.988 26.2587 119.988 25.704V18.376C119.988 17.8213 119.967 17.416 119.924 17.16C119.903 16.904 119.775 16.68 119.54 16.488C119.305 16.296 118.911 16.2 118.356 16.2C118.1 16.2 117.908 16.168 117.78 16.104C117.652 16.0187 117.588 15.8373 117.588 15.56C117.588 15.432 117.631 15.3147 117.716 15.208C117.801 15.08 117.929 15.0053 118.1 14.984C119.487 14.7707 120.628 14.4933 121.524 14.152C121.887 14.0453 122.132 13.9813 122.26 13.96H122.356C122.697 13.96 122.868 14.1627 122.868 14.568V16.584H122.964C123.092 16.456 123.412 16.1467 123.924 15.656C124.436 15.144 125.012 14.76 125.652 14.504C126.313 14.248 127.06 14.12 127.892 14.12C128.916 14.12 129.801 14.344 130.548 14.792C131.295 15.2187 131.849 15.816 132.212 16.584H132.276C133.108 15.7947 133.897 15.1867 134.644 14.76C135.412 14.3333 136.393 14.12 137.588 14.12C139.039 14.12 140.191 14.5573 141.044 15.432C141.897 16.3067 142.324 17.4587 142.324 18.888V25.704C142.324 26.2587 142.345 26.664 142.388 26.92C142.431 27.176 142.569 27.4 142.804 27.592C143.039 27.784 143.433 27.88 143.988 27.88H144.18C144.351 27.88 144.479 27.912 144.564 27.976C144.649 28.04 144.703 28.2 144.724 28.456C144.724 28.6267 144.671 28.776 144.564 28.904C144.479 29.032 144.361 29.096 144.212 29.096C142.975 29.032 141.855 29 140.852 29C139.892 29 138.783 29.032 137.524 29.096C137.353 29.096 137.225 29.032 137.14 28.904C137.055 28.776 137.012 28.6267 137.012 28.456C137.033 28.1787 137.087 28.0187 137.172 27.976C137.279 27.912 137.471 27.88 137.748 27.88C138.303 27.88 138.697 27.784 138.932 27.592C139.167 27.4 139.305 27.176 139.348 26.92C139.391 26.664 139.412 26.2587 139.412 25.704V18.92C139.412 17.9387 139.103 17.192 138.484 16.68C137.865 16.1467 137.151 15.88 136.34 15.88C135.359 15.88 134.559 16.1147 133.94 16.584C133.321 17.0533 132.884 17.5547 132.628 18.088V25.704C132.628 25.832 132.617 26.12 132.596 26.568C132.596 27.016 132.713 27.3467 132.948 27.56C133.204 27.7733 133.609 27.88 134.164 27.88H134.356C134.548 27.88 134.676 27.912 134.74 27.976C134.825 28.04 134.879 28.2 134.9 28.456C134.9 28.6267 134.857 28.776 134.772 28.904C134.687 29.032 134.559 29.096 134.388 29.096C133.129 29.032 132.041 29 131.124 29C130.249 29 129.183 29.032 127.924 29.096C127.753 29.096 127.625 29.032 127.54 28.904C127.455 28.776 127.412 28.6267 127.412 28.456C127.433 28.1787 127.487 28.0187 127.572 27.976C127.679 27.912 127.871 27.88 128.148 27.88C128.852 27.88 129.289 27.7413 129.46 27.464C129.631 27.1653 129.705 26.8347 129.684 26.472C129.684 26.088 129.684 25.832 129.684 25.704V18.92C129.684 17.9387 129.375 17.192 128.756 16.68C128.159 16.1467 127.455 15.88 126.644 15.88C125.663 15.88 124.863 16.1147 124.244 16.584C123.625 17.0533 123.177 17.5547 122.9 18.088V25.704C122.9 26.2587 122.921 26.664 122.964 26.92C123.007 27.176 123.145 27.4 123.38 27.592C123.615 27.784 124.009 27.88 124.564 27.88H124.756C124.927 27.88 125.055 27.912 125.14 27.976C125.225 28.04 125.279 28.2 125.3 28.456C125.3 28.6267 125.257 28.776 125.172 28.904C125.087 29.032 124.959 29.096 124.788 29.096C123.551 29.032 122.431 29 121.428 29C120.468 29 119.359 29.032 118.1 29.096ZM153.863 29.384C152.263 29.384 150.897 29.0427 149.766 28.36C148.657 27.6773 147.815 26.7493 147.239 25.576C146.663 24.4027 146.375 23.1013 146.375 21.672C146.375 20.4133 146.663 19.208 147.239 18.056C147.836 16.8827 148.679 15.9333 149.766 15.208C150.855 14.4827 152.103 14.12 153.51 14.12C155.409 14.12 156.871 14.6107 157.895 15.592C158.919 16.552 159.505 17.8533 159.655 19.496C159.655 20.2 159.463 20.68 159.079 20.936C158.695 21.192 158.14 21.32 157.415 21.32H149.639C149.639 23.304 150.044 24.8827 150.855 26.056C151.687 27.208 152.967 27.784 154.695 27.784C155.612 27.784 156.391 27.592 157.031 27.208C157.671 26.8027 158.279 26.1307 158.855 25.192C158.961 25.0853 159.068 25.032 159.175 25.032C159.324 25.032 159.452 25.0747 159.559 25.16C159.772 25.288 159.879 25.48 159.879 25.736C159.879 25.864 159.857 25.96 159.815 26.024C159.153 27.0907 158.311 27.9227 157.287 28.52C156.284 29.096 155.143 29.384 153.863 29.384ZM154.855 20.104C155.943 20.104 156.519 19.656 156.583 18.76C156.583 17.7787 156.316 16.9467 155.783 16.264C155.249 15.5813 154.492 15.24 153.51 15.24C152.423 15.24 151.527 15.6773 150.823 16.552C150.119 17.4053 149.724 18.5893 149.639 20.104H154.855Z" fill="black"/>
</svg>
