<svg width="15" height="9" viewBox="0 0 15 9" fill="none" xmlns="http://www.w3.org/2000/svg">
<path d="M2.81167 1.22542L7.5 5.91375L12.1883 1.22542C12.3002 1.11355 12.433 1.02481 12.5792 0.964264C12.7253 0.903721 12.882 0.872559 13.0402 0.872559C13.1984 0.872559 13.3551 0.903721 13.5012 0.964264C13.6474 1.02481 13.7802 1.11355 13.8921 1.22542C14.004 1.33729 14.0927 1.4701 14.1532 1.61626C14.2138 1.76243 14.2449 1.91908 14.2449 2.07729C14.2449 2.2355 14.2138 2.39216 14.1532 2.53832C14.0927 2.68449 14.004 2.8173 13.8921 2.92917L8.34583 8.47542C8.23405 8.58743 8.10126 8.6763 7.95509 8.73694C7.80891 8.79757 7.65221 8.82878 7.49396 8.82878C7.3357 8.82878 7.179 8.79757 7.03283 8.73694C6.88665 8.6763 6.75387 8.58743 6.64208 8.47542L1.09583 2.92917C0.983815 2.81738 0.894945 2.6846 0.834309 2.53842C0.773673 2.39224 0.742462 2.23555 0.742462 2.07729C0.742462 1.91904 0.773673 1.76234 0.834309 1.61616C0.894945 1.46999 0.983815 1.3372 1.09583 1.22542C1.56708 0.76625 2.34042 0.754167 2.81167 1.22542Z" fill="white"/>
</svg>
